{"title":"Hansel and Gretel Witch Hunters 2013 TS XviD AC3 - TODE","uid":8144361,"size":728003068,"categoryP":"video","categoryS":"movies","magnet":"?xt=urn:btih:71d76ae531c8ba1cdd7ec608612eb1c8f1801309&amp;dn=Hansel+and+Gretel+Witch+Hunters+2013+TS+XviD+AC3+-+TODE&amp;tr=udp%3A%2F%2Ftracker.openbittorrent.com%3A80&amp;tr=udp%3A%2F%2Fopen.demonii.com%3A1337&amp;tr=udp%3A%2F%2Ftracker.coppersurfer.tk%3A6969&amp;tr=udp%3A%2F%2Fexodus.desync.com%3A6969","seeders":4,"leechers":0,"uploader":"xxxlavalxxx","files":1,"time":1360875229,"description":"\n\n[url]http://www.imdb.com/title/tt1428538/[/url]\n\n\n[b] Plot:In this spin on the fairy tale, Hansel &amp; Gretel are now bounty hunters who track and kill witches all over the world. As the fabled Blood Moon approaches, the siblings encounter a new form of evil that might hold a secret to their past. \n\n\n\nDirector:\n Tommy Wirkola\n\nWriter:\n Tommy Wirkola\n\nStars:\n Jeremy Renner, Gemma Arterton, Peter Stormare\n\nGenres:\n Action | Fantasy | Horror \n\nCountry:\nGermany|USA\n\nLanguage:\nEnglish [/b]\n\n\nFormat                                   : AVI\nFormat/Info                              : Audio Video Interleave\nFile size                                : 694 MiB\nDuration                                 : 1h 20mn\nOverall bit rate                         : 1 210 Kbps\nWriting application                      : Lavf54.59.103\n\nVideo\nID                                       : 0\nFormat                                   : MPEG-4 Visual\nFormat profile                           : Simple@L3\nFormat settings, BVOP                    : No\nFormat settings, QPel                    : No\nFormat settings, GMC                     : No warppoints\nFormat settings, Matrix                  : Default (H.263)\nCodec ID                                 : XVID\nCodec ID/Hint                            : XviD\nDuration                                 : 1h 20mn\nBit rate                                 : 1 070 Kbps\nWidth                                    : 640 pixels\nHeight                                   : 320 pixels\nDisplay aspect ratio                     : 1.957\nFrame rate                               : 29.970 fps\nColor space                              : YUV\nChroma subsampling                       : 4:2:0\nBit depth                                : 8 bits\nScan type                                : Progressive\nCompression mode                         : Lossy\nBits/(Pixel*Frame)                       : 0.174\nStream size                              : 614 MiB (88%)\nWriting library                          : XviD 64\n\nAudio\nID                                       : 1\nFormat                                   : AC-3\nFormat/Info                              : Audio Coding 3\nMode extension                           : CM (complete main)\nFormat settings, Endianness              : Big\nCodec ID                                 : 2000\nDuration                                 : 1h 20mn\nBit rate mode                            : Constant\nBit rate                                 : 128 Kbps\nChannel(s)                               : 2 channels\nChannel positions                        : Front: L R\nSampling rate                            : 48.0 KHz\nBit depth                                : 16 bits\nCompression mode                         : Lossy\nStream size                              : 73.4 MiB (11%)\nAlignment                                : Aligned on interleaves\nInterleave, duration                     : 32 ms (0.96 video frame)\n\n\n &lt;a href=&quot;\nhttp://www.shotpix.com/images/23616120386587518241.png&quot; rel=&quot;nofollow&quot; target=&quot;_NEW&quot;&gt;\nhttp://www.shotpix.com/images/23616120386587518241.png&lt;/a&gt; &lt;a href=&quot;\nhttp://www.shotpix.com/images/04986195390549414547.png&quot; rel=&quot;nofollow&quot; target=&quot;_NEW&quot;&gt;\nhttp://www.shotpix.com/images/04986195390549414547.png&lt;/a&gt; &lt;a href=&quot;\nhttp://www.shotpix.com/images/65131038210257897598.png&quot; rel=&quot;nofollow&quot; target=&quot;_NEW&quot;&gt;\nhttp://www.shotpix.com/images/65131038210257897598.png&lt;/a&gt; &lt;a href=&quot;\nhttp://www.shotpix.com/images/89101902017902207306.png&quot; rel=&quot;nofollow&quot; target=&quot;_NEW&quot;&gt;\nhttp://www.shotpix.com/images/89101902017902207306.png&lt;/a&gt;\n","torrent":{"xt":"urn:btih:71d76ae531c8ba1cdd7ec608612eb1c8f1801309","amp;dn":"Hansel+and+Gretel+Witch+Hunters+2013+TS+XviD+AC3+-+TODE","amp;tr":["udp%3A%2F%2Ftracker.openbittorrent.com%3A80","udp%3A%2F%2Fopen.demonii.com%3A1337","udp%3A%2F%2Ftracker.coppersurfer.tk%3A6969","udp%3A%2F%2Fexodus.desync.com%3A6969"],"infoHash":"71d76ae531c8ba1cdd7ec608612eb1c8f1801309","infoHashBuffer":{"type":"Buffer","data":[113,215,106,229,49,200,186,28,221,126,198,8,97,46,177,200,241,128,19,9]},"announce":[],"urlList":[]}}